<?xml version="1.0" encoding="utf-8"?>
<!-- Generator: Adobe Illustrator 16.0.0, SVG Export Plug-In . SVG Version: 6.00 Build 0)  -->
<!DOCTYPE svg PUBLIC "-//W3C//DTD SVG 1.1//EN" "http://www.w3.org/Graphics/SVG/1.1/DTD/svg11.dtd">
<svg version="1.1" id="Layer_1" xmlns="http://www.w3.org/2000/svg" xmlns:xlink="http://www.w3.org/1999/xlink" x="0px" y="0px"
	 width="16px" height="16px" viewBox="0.5 32.5 16 16" enable-background="new 0.5 32.5 16 16" xml:space="preserve">
<path fill="#4D4D4D" d="M13.989,40.846H12.42c-0.434,0-0.784-0.351-0.784-0.785c0-0.434,0.351-0.784,0.784-0.784h1.569
	c0.432,0,0.782,0.351,0.782,0.784C14.771,40.495,14.421,40.846,13.989,40.846z M11.825,37.842c-0.307,0.309-0.802,0.309-1.108,0
	c-0.307-0.307-0.307-0.8,0-1.108l1.108-1.108c0.309-0.307,0.802-0.307,1.11,0c0.307,0.307,0.307,0.804,0,1.108L11.825,37.842z
	 M8.5,46.332c-0.433,0-0.784-0.35-0.784-0.782v-1.568c0-0.435,0.352-0.785,0.784-0.785c0.435,0,0.784,0.351,0.784,0.785v1.568
	C9.284,45.982,8.935,46.332,8.5,46.332z M8.5,36.925c-0.433,0-0.784-0.353-0.784-0.784v-1.569c0-0.432,0.352-0.784,0.784-0.784
	c0.435,0,0.784,0.353,0.784,0.784v1.569C9.284,36.572,8.935,36.925,8.5,36.925z M5.173,44.497c-0.306,0.306-0.802,0.306-1.108,0
	c-0.306-0.307-0.306-0.805,0-1.108l1.108-1.111c0.307-0.306,0.804-0.306,1.108,0c0.307,0.307,0.307,0.803,0,1.111L5.173,44.497z
	 M5.173,37.842l-1.108-1.108c-0.306-0.305-0.306-0.802,0-1.108c0.307-0.307,0.803-0.307,1.108,0l1.108,1.108
	c0.307,0.309,0.307,0.802,0,1.108C5.977,38.148,5.479,38.148,5.173,37.842z M5.365,40.061c0,0.435-0.354,0.785-0.785,0.785H3.012
	c-0.433,0-0.784-0.351-0.784-0.785c0-0.434,0.352-0.784,0.784-0.784H4.58C5.012,39.276,5.365,39.627,5.365,40.061z M11.825,42.277
	l1.11,1.111c0.307,0.304,0.307,0.802,0,1.108c-0.309,0.306-0.802,0.306-1.11,0l-1.108-1.108c-0.307-0.309-0.307-0.805,0-1.111
	C11.023,41.972,11.521,41.972,11.825,42.277z"/>
</svg>
