<?xml version="1.0" encoding="utf-8"?>
<!-- Generator: Adobe Illustrator 16.0.0, SVG Export Plug-In . SVG Version: 6.00 Build 0)  -->
<!DOCTYPE svg PUBLIC "-//W3C//DTD SVG 1.1//EN" "http://www.w3.org/Graphics/SVG/1.1/DTD/svg11.dtd">
<svg version="1.1" id="Layer_1" xmlns="http://www.w3.org/2000/svg" xmlns:xlink="http://www.w3.org/1999/xlink" x="0px" y="0px"
	 width="16px" height="16px" viewBox="0.5 32.5 16 16" enable-background="new 0.5 32.5 16 16" xml:space="preserve">
<path fill="#4D4D4D" d="M14.842,46.136l-4.903-4.604c0.573-0.791,0.928-1.768,0.928-2.839c0-2.587-1.989-4.692-4.433-4.692
	C3.989,34,2,36.105,2,38.692s1.989,4.691,4.433,4.691c1.083,0,2.062-0.429,2.833-1.113l4.893,4.594L14.842,46.136z M3,38.692
	C3,36.656,4.54,35,6.433,35s3.433,1.656,3.433,3.692s-1.54,3.691-3.433,3.691S3,40.729,3,38.692z"/>
</svg>
