<?xml version="1.0" encoding="utf-8"?>
<!-- Generator: Adobe Illustrator 16.0.0, SVG Export Plug-In . SVG Version: 6.00 Build 0)  -->
<!DOCTYPE svg PUBLIC "-//W3C//DTD SVG 1.1//EN" "http://www.w3.org/Graphics/SVG/1.1/DTD/svg11.dtd">
<svg version="1.1" id="Layer_1" xmlns="http://www.w3.org/2000/svg" xmlns:xlink="http://www.w3.org/1999/xlink" x="0px" y="0px"
	 width="1400px" height="800px" viewBox="0 0 1400 800" enable-background="new 0 0 1400 800" xml:space="preserve">
<line fill="none" stroke="#000000" stroke-width="0.5" stroke-linecap="round" stroke-linejoin="round" x1="74.476" y1="228.354" x2="1032.331" y2="228.354"/>
<line fill="none" stroke="#000000" stroke-width="0.5" stroke-linecap="round" stroke-linejoin="round" x1="73.639" y1="253.563" x2="1334.845" y2="253.563"/>
<line fill="none" stroke="#000000" stroke-width="0.5" stroke-linecap="round" stroke-linejoin="round" x1="73.639" y1="278.773" x2="1234.111" y2="278.773"/>
<line fill="none" stroke="#000000" stroke-width="0.5" stroke-linecap="round" stroke-linejoin="round" x1="73.639" y1="303.983" x2="1234.111" y2="303.983"/>
<line fill="none" stroke="#000000" stroke-width="0.5" stroke-linecap="round" stroke-linejoin="round" x1="73.639" y1="329.192" x2="1234.111" y2="329.192"/>
<line fill="none" stroke="#000000" stroke-width="0.5" stroke-linecap="round" stroke-linejoin="round" x1="73.639" y1="354.401" x2="1234.111" y2="354.401"/>
<line fill="none" stroke="#000000" stroke-width="0.5" stroke-linecap="round" stroke-linejoin="round" x1="73.639" y1="379.611" x2="1234.111" y2="379.611"/>
<line fill="none" stroke="#000000" stroke-width="0.5" stroke-linecap="round" stroke-linejoin="round" x1="73.639" y1="404.82" x2="1234.111" y2="404.82"/>
<line fill="none" stroke="#000000" stroke-width="0.5" stroke-linecap="round" stroke-linejoin="round" x1="74.476" y1="203.145" x2="276.256" y2="203.145"/>
<line fill="none" stroke="#000000" stroke-width="0.5" stroke-linecap="round" stroke-linejoin="round" x1="74.476" y1="177.935" x2="276.256" y2="177.935"/>
<line fill="none" stroke="#000000" stroke-width="0.5" stroke-linecap="round" stroke-linejoin="round" x1="74.476" y1="152.726" x2="276.256" y2="152.726"/>
<line fill="none" stroke="#000000" stroke-width="0.5" stroke-linecap="round" stroke-linejoin="round" x1="74.476" y1="127.516" x2="276.256" y2="127.516"/>
<line fill="none" stroke="#000000" stroke-width="0.5" stroke-linecap="round" stroke-linejoin="round" x1="74.58" y1="404.82" x2="74.58" y2="102.307"/>
<line fill="none" stroke="#000000" stroke-width="0.5" stroke-linecap="round" stroke-linejoin="round" x1="99.79" y1="404.82" x2="99.79" y2="102.307"/>
<line fill="none" stroke="#000000" stroke-width="0.5" stroke-linecap="round" stroke-linejoin="round" x1="124.999" y1="404.82" x2="124.999" y2="102.307"/>
<line fill="none" stroke="#000000" stroke-width="0.5" stroke-linecap="round" stroke-linejoin="round" x1="150.208" y1="404.82" x2="150.208" y2="102.307"/>
<line fill="none" stroke="#000000" stroke-width="0.5" stroke-linecap="round" stroke-linejoin="round" x1="175.418" y1="404.82" x2="175.418" y2="102.307"/>
<line fill="none" stroke="#000000" stroke-width="0.5" stroke-linecap="round" stroke-linejoin="round" x1="200.628" y1="404.82" x2="200.628" y2="102.307"/>
<line fill="none" stroke="#000000" stroke-width="0.5" stroke-linecap="round" stroke-linejoin="round" x1="225.837" y1="404.82" x2="225.837" y2="102.307"/>
<line fill="none" stroke="#000000" stroke-width="0.5" stroke-linecap="round" stroke-linejoin="round" x1="251.046" y1="404.82" x2="251.046" y2="102.307"/>
<line fill="none" stroke="#000000" stroke-width="0.5" stroke-linecap="round" stroke-linejoin="round" x1="276.256" y1="404.82" x2="276.256" y2="102.307"/>
<line fill="none" stroke="#000000" stroke-width="0.5" stroke-linecap="round" stroke-linejoin="round" x1="301.465" y1="404.82" x2="301.465" y2="228.354"/>
<line fill="none" stroke="#000000" stroke-width="0.5" stroke-linecap="round" stroke-linejoin="round" x1="326.675" y1="404.82" x2="326.675" y2="228.354"/>
<line fill="none" stroke="#000000" stroke-width="0.5" stroke-linecap="round" stroke-linejoin="round" x1="351.885" y1="404.82" x2="351.885" y2="228.354"/>
<line fill="none" stroke="#000000" stroke-width="0.5" stroke-linecap="round" stroke-linejoin="round" x1="377.094" y1="404.82" x2="377.094" y2="228.354"/>
<line fill="none" stroke="#000000" stroke-width="0.5" stroke-linecap="round" stroke-linejoin="round" x1="402.303" y1="404.82" x2="402.303" y2="228.354"/>
<line fill="none" stroke="#000000" stroke-width="0.5" stroke-linecap="round" stroke-linejoin="round" x1="427.513" y1="404.82" x2="427.513" y2="228.354"/>
<line fill="none" stroke="#000000" stroke-width="0.5" stroke-linecap="round" stroke-linejoin="round" x1="452.618" y1="405.448" x2="452.618" y2="228.354"/>
<line fill="none" stroke="#000000" stroke-width="0.5" stroke-linecap="round" stroke-linejoin="round" x1="477.827" y1="404.82" x2="477.827" y2="228.354"/>
<line fill="none" stroke="#000000" stroke-width="0.5" stroke-linecap="round" stroke-linejoin="round" x1="503.037" y1="404.82" x2="503.037" y2="228.354"/>
<line fill="none" stroke="#000000" stroke-width="0.5" stroke-linecap="round" stroke-linejoin="round" x1="528.246" y1="404.82" x2="528.246" y2="228.354"/>
<line fill="none" stroke="#000000" stroke-width="0.5" stroke-linecap="round" stroke-linejoin="round" x1="553.456" y1="404.82" x2="553.456" y2="228.354"/>
<line fill="none" stroke="#000000" stroke-width="0.5" stroke-linecap="round" stroke-linejoin="round" x1="578.665" y1="656.391" x2="578.665" y2="228.354"/>
<line fill="none" stroke="#000000" stroke-width="0.5" stroke-linecap="round" stroke-linejoin="round" x1="578.665" y1="430.029" x2="1234.006" y2="430.029"/>
<line fill="none" stroke="#000000" stroke-width="0.5" stroke-linecap="round" stroke-linejoin="round" x1="578.665" y1="455.239" x2="1234.006" y2="455.239"/>
<line fill="none" stroke="#000000" stroke-width="0.5" stroke-linecap="round" stroke-linejoin="round" x1="578.665" y1="480.448" x2="1234.006" y2="480.448"/>
<line fill="none" stroke="#000000" stroke-width="0.5" stroke-linecap="round" stroke-linejoin="round" x1="578.665" y1="505.658" x2="1234.006" y2="505.658"/>
<line fill="none" stroke="#000000" stroke-width="0.5" stroke-linecap="round" stroke-linejoin="round" x1="578.665" y1="530.867" x2="1359.845" y2="530.867"/>
<line fill="none" stroke="#000000" stroke-width="0.5" stroke-linecap="round" stroke-linejoin="round" x1="578.665" y1="555.973" x2="1359.845" y2="555.973"/>
<line fill="none" stroke="#000000" stroke-width="0.5" stroke-linecap="round" stroke-linejoin="round" x1="578.665" y1="581.182" x2="957.121" y2="581.182"/>
<line fill="none" stroke="#000000" stroke-width="0.5" stroke-linecap="round" stroke-linejoin="round" x1="578.665" y1="606.392" x2="957.121" y2="606.392"/>
<line fill="none" stroke="#000000" stroke-width="0.5" stroke-linecap="round" stroke-linejoin="round" x1="49.371" y1="631.602" x2="1032.331" y2="631.602"/>
<line fill="none" stroke="#000000" stroke-width="0.5" stroke-linecap="round" stroke-linejoin="round" x1="49.371" y1="656.811" x2="1032.331" y2="656.811"/>
<line fill="none" stroke="#000000" stroke-width="0.5" stroke-linecap="round" stroke-linejoin="round" x1="553.456" y1="656.811" x2="553.456" y2="631.496"/>
<line fill="none" stroke="#000000" stroke-width="0.5" stroke-linecap="round" stroke-linejoin="round" x1="528.246" y1="656.811" x2="528.246" y2="631.496"/>
<line fill="none" stroke="#000000" stroke-width="0.5" stroke-linecap="round" stroke-linejoin="round" x1="503.037" y1="656.811" x2="503.037" y2="631.496"/>
<line fill="none" stroke="#000000" stroke-width="0.5" stroke-linecap="round" stroke-linejoin="round" x1="477.827" y1="656.811" x2="477.827" y2="631.496"/>
<line fill="none" stroke="#000000" stroke-width="0.5" stroke-linecap="round" stroke-linejoin="round" x1="452.618" y1="656.811" x2="452.618" y2="631.496"/>
<line fill="none" stroke="#000000" stroke-width="0.5" stroke-linecap="round" stroke-linejoin="round" x1="427.513" y1="656.811" x2="427.513" y2="631.496"/>
<line fill="none" stroke="#000000" stroke-width="0.5" stroke-linecap="round" stroke-linejoin="round" x1="402.303" y1="656.811" x2="402.303" y2="631.496"/>
<line fill="none" stroke="#000000" stroke-width="0.5" stroke-linecap="round" stroke-linejoin="round" x1="377.094" y1="656.811" x2="377.094" y2="631.496"/>
<line fill="none" stroke="#000000" stroke-width="0.5" stroke-linecap="round" stroke-linejoin="round" x1="351.885" y1="656.811" x2="351.885" y2="631.496"/>
<line fill="none" stroke="#000000" stroke-width="0.5" stroke-linecap="round" stroke-linejoin="round" x1="326.675" y1="656.811" x2="326.675" y2="631.496"/>
<line fill="none" stroke="#000000" stroke-width="0.5" stroke-linecap="round" stroke-linejoin="round" x1="301.465" y1="656.811" x2="301.465" y2="631.496"/>
<line fill="none" stroke="#000000" stroke-width="0.5" stroke-linecap="round" stroke-linejoin="round" x1="276.256" y1="656.811" x2="276.256" y2="631.496"/>
<line fill="none" stroke="#000000" stroke-width="0.5" stroke-linecap="round" stroke-linejoin="round" x1="251.046" y1="656.811" x2="251.046" y2="631.496"/>
<line fill="none" stroke="#000000" stroke-width="0.5" stroke-linecap="round" stroke-linejoin="round" x1="225.837" y1="656.811" x2="225.837" y2="631.496"/>
<line fill="none" stroke="#000000" stroke-width="0.5" stroke-linecap="round" stroke-linejoin="round" x1="200.628" y1="656.811" x2="200.628" y2="631.496"/>
<line fill="none" stroke="#000000" stroke-width="0.5" stroke-linecap="round" stroke-linejoin="round" x1="175.418" y1="656.811" x2="175.418" y2="631.496"/>
<line fill="none" stroke="#000000" stroke-width="0.5" stroke-linecap="round" stroke-linejoin="round" x1="150.208" y1="656.811" x2="150.208" y2="631.496"/>
<line fill="none" stroke="#000000" stroke-width="0.5" stroke-linecap="round" stroke-linejoin="round" x1="124.999" y1="656.811" x2="124.999" y2="631.496"/>
<line fill="none" stroke="#000000" stroke-width="0.5" stroke-linecap="round" stroke-linejoin="round" x1="99.79" y1="656.811" x2="99.79" y2="631.496"/>
<line fill="none" stroke="#000000" stroke-width="0.5" stroke-linecap="round" stroke-linejoin="round" x1="74.58" y1="656.811" x2="74.58" y2="404.82"/>
<line fill="none" stroke="#000000" stroke-width="0.5" stroke-linecap="round" stroke-linejoin="round" x1="49.371" y1="656.811" x2="49.371" y2="606.392"/>
<line fill="none" stroke="#000000" stroke-width="0.5" stroke-linecap="round" stroke-linejoin="round" x1="603.875" y1="656.391" x2="603.875" y2="228.354"/>
<line fill="none" stroke="#000000" stroke-width="0.5" stroke-linecap="round" stroke-linejoin="round" x1="629.084" y1="656.391" x2="629.084" y2="228.354"/>
<line fill="none" stroke="#000000" stroke-width="0.5" stroke-linecap="round" stroke-linejoin="round" x1="654.293" y1="656.391" x2="654.293" y2="228.354"/>
<line fill="none" stroke="#000000" stroke-width="0.5" stroke-linecap="round" stroke-linejoin="round" x1="679.502" y1="656.391" x2="679.502" y2="228.354"/>
<line fill="none" stroke="#000000" stroke-width="0.5" stroke-linecap="round" stroke-linejoin="round" x1="704.713" y1="656.391" x2="704.713" y2="228.354"/>
<line fill="none" stroke="#000000" stroke-width="0.5" stroke-linecap="round" stroke-linejoin="round" x1="729.922" y1="656.391" x2="729.922" y2="228.354"/>
<line fill="none" stroke="#000000" stroke-width="0.5" stroke-linecap="round" stroke-linejoin="round" x1="755.131" y1="656.391" x2="755.131" y2="228.354"/>
<line fill="none" stroke="#000000" stroke-width="0.5" stroke-linecap="round" stroke-linejoin="round" x1="780.342" y1="656.391" x2="780.342" y2="228.354"/>
<line fill="none" stroke="#000000" stroke-width="0.5" stroke-linecap="round" stroke-linejoin="round" x1="805.551" y1="656.391" x2="805.551" y2="228.354"/>
<line fill="none" stroke="#000000" stroke-width="0.5" stroke-linecap="round" stroke-linejoin="round" x1="830.76" y1="656.391" x2="830.76" y2="228.354"/>
<line fill="none" stroke="#000000" stroke-width="0.5" stroke-linecap="round" stroke-linejoin="round" x1="855.969" y1="656.391" x2="855.969" y2="228.354"/>
<line fill="none" stroke="#000000" stroke-width="0.5" stroke-linecap="round" stroke-linejoin="round" x1="881.179" y1="656.391" x2="881.179" y2="228.354"/>
<line fill="none" stroke="#000000" stroke-width="0.5" stroke-linecap="round" stroke-linejoin="round" x1="906.283" y1="656.391" x2="906.283" y2="228.354"/>
<line fill="none" stroke="#000000" stroke-width="0.5" stroke-linecap="round" stroke-linejoin="round" x1="931.493" y1="656.391" x2="931.493" y2="228.354"/>
<line fill="none" stroke="#000000" stroke-width="0.5" stroke-linecap="round" stroke-linejoin="round" x1="956.702" y1="656.391" x2="956.702" y2="228.354"/>
<line fill="none" stroke="#000000" stroke-width="0.5" stroke-linecap="round" stroke-linejoin="round" x1="981.912" y1="555.973" x2="981.912" y2="228.354"/>
<line fill="none" stroke="#000000" stroke-width="0.5" stroke-linecap="round" stroke-linejoin="round" x1="1007.122" y1="555.973" x2="1007.122" y2="228.354"/>
<line fill="none" stroke="#000000" stroke-width="0.5" stroke-linecap="round" stroke-linejoin="round" x1="1032.331" y1="555.973" x2="1032.331" y2="228.354"/>
<line fill="none" stroke="#000000" stroke-width="0.5" stroke-linecap="round" stroke-linejoin="round" x1="1057.54" y1="555.973" x2="1057.54" y2="252.203"/>
<line fill="none" stroke="#000000" stroke-width="0.5" stroke-linecap="round" stroke-linejoin="round" x1="1082.75" y1="555.973" x2="1082.75" y2="252.203"/>
<line fill="none" stroke="#000000" stroke-width="0.5" stroke-linecap="round" stroke-linejoin="round" x1="1107.959" y1="555.973" x2="1107.959" y2="252.203"/>
<line fill="none" stroke="#000000" stroke-width="0.5" stroke-linecap="round" stroke-linejoin="round" x1="1133.168" y1="555.973" x2="1133.168" y2="252.203"/>
<line fill="none" stroke="#000000" stroke-width="0.5" stroke-linecap="round" stroke-linejoin="round" x1="1158.378" y1="555.973" x2="1158.378" y2="252.203"/>
<line fill="none" stroke="#000000" stroke-width="0.5" stroke-linecap="round" stroke-linejoin="round" x1="1183.588" y1="555.973" x2="1183.588" y2="252.203"/>
<line fill="none" stroke="#000000" stroke-width="0.5" stroke-linecap="round" stroke-linejoin="round" x1="1208.797" y1="555.973" x2="1208.797" y2="252.203"/>
<line fill="none" stroke="#000000" stroke-width="0.5" stroke-linecap="round" stroke-linejoin="round" x1="1234.006" y1="555.973" x2="1234.006" y2="252.203"/>
<line fill="none" stroke="#000000" stroke-width="0.5" stroke-linecap="round" stroke-linejoin="round" x1="1259.216" y1="555.973" x2="1259.216" y2="530.658"/>
<line fill="none" stroke="#000000" stroke-width="0.5" stroke-linecap="round" stroke-linejoin="round" x1="1284.426" y1="555.973" x2="1284.426" y2="530.658"/>
<line fill="none" stroke="#000000" stroke-width="0.5" stroke-linecap="round" stroke-linejoin="round" x1="1309.635" y1="555.973" x2="1309.635" y2="530.658"/>
<line fill="none" stroke="#000000" stroke-width="0.5" stroke-linecap="round" stroke-linejoin="round" x1="1334.845" y1="555.973" x2="1334.845" y2="253.563"/>
<line fill="none" stroke="#000000" stroke-width="0.5" stroke-linecap="round" stroke-linejoin="round" x1="1359.949" y1="555.973" x2="1359.949" y2="505.658"/>
<line fill="none" stroke="#000000" stroke-width="0.5" stroke-linecap="round" stroke-linejoin="round" x1="1334.845" y1="505.658" x2="1359.949" y2="505.658"/>
<line fill="none" stroke="#000000" stroke-width="0.5" stroke-linecap="round" stroke-linejoin="round" x1="981.912" y1="656.811" x2="981.912" y2="631.496"/>
<line fill="none" stroke="#000000" stroke-width="0.5" stroke-linecap="round" stroke-linejoin="round" x1="1007.122" y1="656.811" x2="1007.122" y2="631.496"/>
<line fill="none" stroke="#000000" stroke-width="0.5" stroke-linecap="round" stroke-linejoin="round" x1="1032.331" y1="656.811" x2="1032.331" y2="631.496"/>
<line fill="none" stroke="#000000" stroke-width="0.5" stroke-linecap="round" stroke-linejoin="round" x1="49.371" y1="606.392" x2="74.58" y2="606.392"/>
<line fill="none" stroke="#000000" stroke-width="0.5" stroke-linecap="round" stroke-linejoin="round" x1="74.58" y1="404.82" x2="74.58" y2="102.307"/>
<line fill="none" stroke="#000000" stroke-width="0.5" stroke-linecap="round" stroke-linejoin="round" x1="74.58" y1="404.82" x2="74.58" y2="102.307"/>
<line fill="none" stroke="#000000" stroke-width="0.5" stroke-linecap="round" stroke-linejoin="round" x1="69.56" y1="404.82" x2="69.56" y2="102.307"/>
<polyline fill="none" stroke="#000000" stroke-width="0.5" stroke-linecap="round" stroke-linejoin="round" stroke-dasharray="3,3" points="
	295.921,320.615 295.921,81.7 57.007,81.7 57.007,320.615 295.921,320.615 "/>
<path fill="none" stroke="#000000" stroke-width="0.5" stroke-linecap="round" stroke-linejoin="round" d="M255.754,671.717
	c0,1.357-1.101,2.458-2.458,2.458c-1.357,0-2.458-1.101-2.458-2.458s1.101-2.459,2.458-2.459
	C254.653,669.258,255.754,670.359,255.754,671.717"/>
<line fill="none" stroke="#000000" stroke-width="0.5" stroke-linecap="round" stroke-linejoin="round" x1="956.702" y1="631.602" x2="956.702" y2="555.973"/>
<line fill="none" stroke="#000000" stroke-width="0.5" stroke-linecap="round" stroke-linejoin="round" x1="966.222" y1="631.602" x2="966.222" y2="555.973"/>
<line fill="none" stroke="#000000" stroke-width="0.5" stroke-linecap="round" stroke-linejoin="round" x1="975.636" y1="631.602" x2="975.636" y2="555.973"/>
<line fill="none" stroke="#000000" stroke-width="0.5" stroke-linecap="round" stroke-linejoin="round" x1="985.051" y1="631.602" x2="985.051" y2="555.973"/>
<line fill="none" stroke="#000000" stroke-width="0.5" stroke-linecap="round" stroke-linejoin="round" x1="994.569" y1="631.602" x2="994.569" y2="555.973"/>
<line fill="none" stroke="#000000" stroke-width="0.5" stroke-linecap="round" stroke-linejoin="round" x1="1003.984" y1="631.602" x2="1003.984" y2="555.973"/>
<line fill="none" stroke="#000000" stroke-width="0.5" stroke-linecap="round" stroke-linejoin="round" x1="1013.397" y1="631.602" x2="1013.397" y2="555.973"/>
<line fill="none" stroke="#000000" stroke-width="0.5" stroke-linecap="round" stroke-linejoin="round" x1="1022.916" y1="631.602" x2="1022.916" y2="555.973"/>
<line fill="none" stroke="#000000" stroke-width="0.5" stroke-linecap="round" stroke-linejoin="round" x1="1032.331" y1="631.602" x2="1032.331" y2="555.973"/>
<line fill="none" stroke="#000000" stroke-width="0.5" stroke-linecap="round" stroke-linejoin="round" x1="966.222" y1="593.84" x2="956.702" y2="593.84"/>
<line fill="none" stroke="#000000" stroke-width="0.5" stroke-linecap="round" stroke-linejoin="round" x1="975.636" y1="593.84" x2="985.051" y2="593.84"/>
<line fill="none" stroke="#000000" stroke-width="0.5" stroke-linecap="round" stroke-linejoin="round" x1="994.569" y1="593.84" x2="1003.984" y2="593.84"/>
<line fill="none" stroke="#000000" stroke-width="0.5" stroke-linecap="round" stroke-linejoin="round" x1="1013.397" y1="593.84" x2="1022.916" y2="593.84"/>
<line fill="none" stroke="#000000" stroke-width="0.5" stroke-linecap="round" stroke-linejoin="round" x1="975.636" y1="606.392" x2="966.222" y2="606.392"/>
<line fill="none" stroke="#000000" stroke-width="0.5" stroke-linecap="round" stroke-linejoin="round" x1="994.569" y1="606.392" x2="985.051" y2="606.392"/>
<line fill="none" stroke="#000000" stroke-width="0.5" stroke-linecap="round" stroke-linejoin="round" x1="1013.397" y1="606.392" x2="1003.984" y2="606.392"/>
<line fill="none" stroke="#000000" stroke-width="0.5" stroke-linecap="round" stroke-linejoin="round" x1="1032.331" y1="606.392" x2="1022.916" y2="606.392"/>
<line fill="none" stroke="#000000" stroke-width="0.5" stroke-linecap="round" stroke-linejoin="round" x1="975.636" y1="581.182" x2="966.222" y2="581.182"/>
<line fill="none" stroke="#000000" stroke-width="0.5" stroke-linecap="round" stroke-linejoin="round" x1="994.569" y1="581.182" x2="985.051" y2="581.182"/>
<line fill="none" stroke="#000000" stroke-width="0.5" stroke-linecap="round" stroke-linejoin="round" x1="1013.397" y1="581.182" x2="1003.984" y2="581.182"/>
<line fill="none" stroke="#000000" stroke-width="0.5" stroke-linecap="round" stroke-linejoin="round" x1="1032.331" y1="581.182" x2="1022.916" y2="581.182"/>
<polyline fill="none" stroke="#000000" stroke-width="0.5" stroke-linecap="round" stroke-linejoin="round" points="
	1298.965,295.196 1298.965,282.015 1285.891,282.015 1285.891,295.196 1298.965,295.196 "/>
<path fill="#FFFFFF" d="M1292.584,297.497c5.422-0.783,9.415-5.396,9.415-10.878l0,0c0-6.124-4.964-11.088-11.089-11.088l0,0
	c-6.065,0-10.982,4.964-10.982,11.088l0,0c0,1.108,0.141,2.238,0.419,3.346l0,0c0-0.487,0-0.941,0-1.358l0,0
	c0-5.201,4.167-9.415,9.309-9.415l0,0c5.2,0,9.414,4.214,9.414,9.415l0,0C1299.069,292.66,1296.452,296.25,1292.584,297.497
	L1292.584,297.497"/>
<path fill="none" stroke="#000000" stroke-width="0.5" stroke-linecap="round" stroke-linejoin="round" d="M1292.584,297.497
	c5.422-0.783,9.415-5.396,9.415-10.878l0,0c0-6.124-4.964-11.088-11.089-11.088l0,0c-6.065,0-10.982,4.964-10.982,11.088l0,0
	c0,1.108,0.141,2.238,0.419,3.346l0,0c0-0.487,0-0.941,0-1.358l0,0c0-5.201,4.167-9.415,9.309-9.415l0,0
	c5.2,0,9.414,4.214,9.414,9.415l0,0C1299.069,292.66,1296.452,296.25,1292.584,297.497L1292.584,297.497"/>
<path fill="#FFFFFF" d="M1298.442,286.566c0,1.763-1.429,3.19-3.19,3.19s-3.19-1.428-3.19-3.19c0-1.762,1.429-3.19,3.19-3.19
	S1298.442,284.804,1298.442,286.566"/>
<path fill="none" stroke="#000000" stroke-width="0.5" stroke-linecap="round" stroke-linejoin="round" d="M1298.442,286.566
	c0,1.763-1.429,3.19-3.19,3.19s-3.19-1.428-3.19-3.19c0-1.762,1.429-3.19,3.19-3.19S1298.442,284.804,1298.442,286.566"/>
<g>
	<g>
		
			<line fill="none" stroke="#000000" stroke-width="0.118" stroke-linecap="round" stroke-linejoin="round" x1="805.551" y1="530.553" x2="823.123" y2="512.876"/>
		<path fill="none" stroke="#000000" stroke-width="0.118" stroke-linecap="round" stroke-linejoin="round" d="M823.123,512.876
			c-2.279-2.28-5.015-4.091-8.054-5.335l0,0c-3.037-1.242-6.274-1.883-9.519-1.883l0,0"/>
	</g>
	<g>
		
			<line fill="none" stroke="#000000" stroke-width="0.118" stroke-linecap="round" stroke-linejoin="round" x1="805.551" y1="480.448" x2="823.123" y2="498.022"/>
		<path fill="none" stroke="#000000" stroke-width="0.118" stroke-linecap="round" stroke-linejoin="round" d="M805.551,505.345
			c3.244,0,6.481-0.642,9.519-1.883l0,0c3.039-1.243,5.774-3.091,8.054-5.439l0,0"/>
	</g>
</g>
<g>
	<polyline fill="#FFFFFF" points="306.486,299.17 306.486,284.108 246.026,284.108 246.026,299.17 306.486,299.17 	"/>
	<polyline fill="none" stroke="#000000" stroke-width="0.5" stroke-linecap="round" stroke-linejoin="round" points="
		306.486,299.17 306.486,284.108 246.026,284.108 246.026,299.17 306.486,299.17 	"/>
	<polyline fill="#FFFFFF" points="360.671,299.17 360.671,284.108 306.486,284.108 306.486,299.17 360.671,299.17 	"/>
	<polyline fill="none" stroke="#000000" stroke-width="0.5" stroke-linecap="round" stroke-linejoin="round" points="
		360.671,299.17 360.671,284.108 306.486,284.108 306.486,299.17 360.671,299.17 	"/>
	<polyline fill="#FFFFFF" points="414.855,299.17 414.855,284.108 360.671,284.108 360.671,299.17 414.855,299.17 	"/>
	<polyline fill="none" stroke="#000000" stroke-width="0.5" stroke-linecap="round" stroke-linejoin="round" points="
		414.855,299.17 414.855,284.108 360.671,284.108 360.671,299.17 414.855,299.17 	"/>
	<polyline fill="#FFFFFF" points="469.041,299.17 469.041,284.108 414.855,284.108 414.855,299.17 469.041,299.17 	"/>
	<polyline fill="none" stroke="#000000" stroke-width="0.5" stroke-linecap="round" stroke-linejoin="round" points="
		469.041,299.17 469.041,284.108 414.855,284.108 414.855,299.17 469.041,299.17 	"/>
	<polyline fill="#FFFFFF" points="523.225,299.17 523.225,284.108 469.041,284.108 469.041,299.17 523.225,299.17 	"/>
	<polyline fill="none" stroke="#000000" stroke-width="0.5" stroke-linecap="round" stroke-linejoin="round" points="
		523.225,299.17 523.225,284.108 469.041,284.108 469.041,299.17 523.225,299.17 	"/>
	<polyline fill="#FFFFFF" points="577.41,299.17 577.41,284.108 523.225,284.108 523.225,299.17 577.41,299.17 	"/>
	<polyline fill="none" stroke="#000000" stroke-width="0.5" stroke-linecap="round" stroke-linejoin="round" points="577.41,299.17 
		577.41,284.108 523.225,284.108 523.225,299.17 577.41,299.17 	"/>
	<polyline fill="#FFFFFF" points="637.871,299.17 637.871,284.108 577.41,284.108 577.41,299.17 637.871,299.17 	"/>
	<polyline fill="none" stroke="#000000" stroke-width="0.5" stroke-linecap="round" stroke-linejoin="round" points="
		637.871,299.17 637.871,284.108 577.41,284.108 577.41,299.17 637.871,299.17 	"/>
</g>
<polyline fill="none" stroke="#000000" stroke-width="0.5" stroke-linecap="round" stroke-linejoin="round" stroke-dasharray="3,3" points="
	1237.459,559.32 1237.459,226.575 651.992,226.575 651.992,559.32 1237.459,559.32 "/>
<g>
	
		<line fill="none" stroke="#000000" stroke-width="0.118" stroke-linecap="round" stroke-linejoin="round" x1="175.313" y1="152.412" x2="157.74" y2="169.985"/>
	<path fill="none" stroke="#000000" stroke-width="0.118" stroke-linecap="round" stroke-linejoin="round" d="M157.74,169.985
		c2.28,2.349,5.015,4.195,8.054,5.439l0,0c3.037,1.242,6.274,1.882,9.519,1.882l0,0"/>
</g>
<g>
	
		<line fill="none" stroke="#000000" stroke-width="0.118" stroke-linecap="round" stroke-linejoin="round" x1="225.837" y1="103.876" x2="243.515" y2="121.449"/>
	<path fill="none" stroke="#000000" stroke-width="0.118" stroke-linecap="round" stroke-linejoin="round" d="M225.837,128.772
		c3.244,0,6.481-0.641,9.519-1.883l0,0c3.04-1.243,5.81-3.09,8.159-5.439l0,0"/>
</g>
<g>
	
		<line fill="none" stroke="#000000" stroke-width="0.118" stroke-linecap="round" stroke-linejoin="round" x1="252.197" y1="228.25" x2="234.519" y2="210.676"/>
	<path fill="none" stroke="#000000" stroke-width="0.118" stroke-linecap="round" stroke-linejoin="round" d="M234.519,210.676
		c-2.278,2.278-4.127,5.017-5.439,8.055l0,0c-1.242,3.036-1.882,6.273-1.882,9.519l0,0"/>
</g>
<g>
	<g>
		
			<line fill="none" stroke="#000000" stroke-width="0.118" stroke-linecap="round" stroke-linejoin="round" x1="1032.331" y1="303.773" x2="1050.009" y2="286.095"/>
		<path fill="none" stroke="#000000" stroke-width="0.118" stroke-linecap="round" stroke-linejoin="round" d="M1050.009,286.095
			c-2.348-2.348-5.122-4.196-8.159-5.439l0,0c-2.971-1.244-6.202-1.882-9.519-1.882l0,0"/>
	</g>
	<g>
		
			<line fill="none" stroke="#000000" stroke-width="0.118" stroke-linecap="round" stroke-linejoin="round" x1="1032.331" y1="253.563" x2="1050.009" y2="271.241"/>
		<path fill="none" stroke="#000000" stroke-width="0.118" stroke-linecap="round" stroke-linejoin="round" d="M1032.331,278.564
			c3.316,0,6.548-0.64,9.519-1.883l0,0c3.037-1.312,5.812-3.162,8.159-5.44l0,0"/>
	</g>
</g>
<g>
	
		<line fill="none" stroke="#000000" stroke-width="0.118" stroke-linecap="round" stroke-linejoin="round" x1="224.478" y1="134.525" x2="206.799" y2="116.847"/>
	<path fill="none" stroke="#000000" stroke-width="0.118" stroke-linecap="round" stroke-linejoin="round" d="M206.799,116.847
		c-2.347,2.347-4.197,5.122-5.439,8.159l0,0c-1.242,3.037-1.883,6.274-1.883,9.52l0,0"/>
</g>
<polyline points="175.418,102.307 175.418,97.286 69.56,97.286 69.56,102.307 175.418,102.307 "/>
<polyline fill="none" stroke="#000000" stroke-width="0.5" stroke-linecap="round" stroke-linejoin="round" points="
	175.418,102.307 175.418,97.286 69.56,97.286 69.56,102.307 175.418,102.307 "/>
<polyline points="281.277,143.73 281.277,97.286 276.256,97.286 276.256,143.73 281.277,143.73 "/>
<polyline fill="none" stroke="#000000" stroke-width="0.5" stroke-linecap="round" stroke-linejoin="round" points="281.277,143.73 
	281.277,97.286 276.256,97.286 276.256,143.73 281.277,143.73 "/>
<polyline points="281.277,234.944 281.277,189.023 276.256,189.023 276.256,234.944 281.277,234.944 "/>
<polyline fill="none" stroke="#000000" stroke-width="0.5" stroke-linecap="round" stroke-linejoin="round" points="
	281.277,234.944 281.277,189.023 276.256,189.023 276.256,234.944 281.277,234.944 "/>
<polyline points="74.58,631.602 74.58,97.286 69.56,97.286 69.56,631.602 74.58,631.602 "/>
<polyline fill="none" stroke="#000000" stroke-width="0.5" stroke-linecap="round" stroke-linejoin="round" points="74.58,631.602 
	74.58,97.286 69.56,97.286 69.56,631.602 74.58,631.602 "/>
<polyline points="251.046,631.602 251.046,626.58 69.56,626.58 69.56,631.602 251.046,631.602 "/>
<polyline fill="none" stroke="#000000" stroke-width="0.5" stroke-linecap="round" stroke-linejoin="round" points="
	251.046,631.602 251.046,626.58 69.56,626.58 69.56,631.602 251.046,631.602 "/>
<polyline points="718.521,278.773 718.521,273.752 237.134,273.752 237.134,278.773 718.521,278.773 "/>
<polyline fill="none" stroke="#000000" stroke-width="0.5" stroke-linecap="round" stroke-linejoin="round" points="
	718.521,278.773 718.521,273.752 237.134,273.752 237.134,278.773 718.521,278.773 "/>
<polyline points="903.773,474.068 903.773,469.047 687.034,469.047 687.034,474.068 903.773,474.068 "/>
<polyline fill="none" stroke="#000000" stroke-width="0.5" stroke-linecap="round" stroke-linejoin="round" points="
	903.773,474.068 903.773,469.047 687.034,469.047 687.034,474.068 903.773,474.068 "/>
<polyline points="1121.872,374.589 1121.872,369.464 985.678,369.464 985.678,374.589 1121.872,374.589 "/>
<polyline fill="none" stroke="#000000" stroke-width="0.5" stroke-linecap="round" stroke-linejoin="round" points="
	1121.872,374.589 1121.872,369.464 985.678,369.464 985.678,374.589 1121.872,374.589 "/>
<polyline points="1334.845,535.889 1334.845,530.867 1091.536,530.867 1091.536,535.889 1334.845,535.889 "/>
<polyline fill="none" stroke="#000000" stroke-width="0.5" stroke-linecap="round" stroke-linejoin="round" points="
	1334.845,535.889 1334.845,530.867 1091.536,530.867 1091.536,535.889 1334.845,535.889 "/>
<polyline points="1334.845,253.563 1334.845,248.543 1000.845,248.543 1000.845,253.563 1334.845,253.563 "/>
<polyline fill="none" stroke="#000000" stroke-width="0.5" stroke-linecap="round" stroke-linejoin="round" points="
	1334.845,253.563 1334.845,248.543 1000.845,248.543 1000.845,253.563 1334.845,253.563 "/>
<polyline points="1339.865,535.889 1339.865,248.543 1334.845,248.543 1334.845,535.889 1339.865,535.889 "/>
<polyline fill="none" stroke="#000000" stroke-width="0.5" stroke-linecap="round" stroke-linejoin="round" points="
	1339.865,535.889 1339.865,248.543 1334.845,248.543 1334.845,535.889 1339.865,535.889 "/>
<line fill="none" stroke="#000000" stroke-width="0.412" stroke-linecap="round" stroke-linejoin="round" x1="175.418" y1="97.286" x2="276.256" y2="97.286"/>
<line fill="none" stroke="#000000" stroke-width="0.412" stroke-linecap="round" stroke-linejoin="round" x1="175.418" y1="102.307" x2="276.256" y2="102.307"/>
<line fill="none" stroke="#000000" stroke-width="0.412" stroke-linecap="round" stroke-linejoin="round" x1="276.256" y1="143.73" x2="276.256" y2="189.023"/>
<line fill="none" stroke="#000000" stroke-width="0.412" stroke-linecap="round" stroke-linejoin="round" x1="281.277" y1="189.023" x2="281.277" y2="143.73"/>
<line fill="none" stroke="#000000" stroke-width="0.412" stroke-linecap="round" stroke-linejoin="round" x1="224.478" y1="134.629" x2="276.256" y2="134.629"/>
<line fill="none" stroke="#000000" stroke-width="0.412" stroke-linecap="round" stroke-linejoin="round" x1="199.477" y1="134.629" x2="175.418" y2="134.629"/>
<line fill="none" stroke="#000000" stroke-width="0.412" stroke-linecap="round" stroke-linejoin="round" x1="199.477" y1="135.885" x2="175.418" y2="135.885"/>
<line fill="none" stroke="#000000" stroke-width="0.412" stroke-linecap="round" stroke-linejoin="round" x1="224.478" y1="135.885" x2="276.256" y2="135.885"/>
<line fill="none" stroke="#000000" stroke-width="0.412" stroke-linecap="round" stroke-linejoin="round" x1="175.418" y1="102.307" x2="175.418" y2="153.458"/>
<line fill="none" stroke="#000000" stroke-width="0.412" stroke-linecap="round" stroke-linejoin="round" x1="176.673" y1="102.307" x2="176.673" y2="153.458"/>
<line fill="none" stroke="#000000" stroke-width="0.412" stroke-linecap="round" stroke-linejoin="round" x1="175.418" y1="176.157" x2="175.418" y2="228.354"/>
<line fill="none" stroke="#000000" stroke-width="0.412" stroke-linecap="round" stroke-linejoin="round" x1="176.673" y1="176.157" x2="176.673" y2="228.354"/>
<line fill="none" stroke="#000000" stroke-width="0.412" stroke-linecap="round" stroke-linejoin="round" x1="251.046" y1="228.354" x2="276.256" y2="228.354"/>
<line fill="none" stroke="#000000" stroke-width="0.412" stroke-linecap="round" stroke-linejoin="round" x1="251.046" y1="229.61" x2="276.256" y2="229.61"/>
<line fill="none" stroke="#000000" stroke-width="0.412" stroke-linecap="round" stroke-linejoin="round" x1="228.348" y1="228.354" x2="74.476" y2="228.354"/>
<line fill="none" stroke="#000000" stroke-width="0.412" stroke-linecap="round" stroke-linejoin="round" x1="228.348" y1="229.61" x2="74.476" y2="229.61"/>
<line fill="none" stroke="#000000" stroke-width="0.412" stroke-linecap="round" stroke-linejoin="round" x1="1091.536" y1="530.867" x2="805.551" y2="530.867"/>
<line fill="none" stroke="#000000" stroke-width="0.412" stroke-linecap="round" stroke-linejoin="round" x1="1091.536" y1="532.123" x2="805.551" y2="532.123"/>
<line fill="none" stroke="#000000" stroke-width="0.412" stroke-linecap="round" stroke-linejoin="round" x1="1091.536" y1="530.867" x2="805.551" y2="530.867"/>
<line fill="none" stroke="#000000" stroke-width="0.412" stroke-linecap="round" stroke-linejoin="round" x1="805.551" y1="311.514" x2="1057.54" y2="311.514"/>
<line fill="none" stroke="#000000" stroke-width="0.412" stroke-linecap="round" stroke-linejoin="round" x1="805.551" y1="312.769" x2="1057.54" y2="312.769"/>
<line fill="none" stroke="#000000" stroke-width="0.412" stroke-linecap="round" stroke-linejoin="round" x1="805.551" y1="480.448" x2="805.551" y2="474.068"/>
<line fill="none" stroke="#000000" stroke-width="0.412" stroke-linecap="round" stroke-linejoin="round" x1="806.805" y1="480.448" x2="806.805" y2="474.068"/>
<line fill="none" stroke="#000000" stroke-width="0.412" stroke-linecap="round" stroke-linejoin="round" x1="1032.331" y1="303.983" x2="1032.331" y2="311.514"/>
<line fill="none" stroke="#000000" stroke-width="0.412" stroke-linecap="round" stroke-linejoin="round" x1="1033.586" y1="303.983" x2="1033.586" y2="311.514"/>
<line fill="none" stroke="#000000" stroke-width="0.412" stroke-linecap="round" stroke-linejoin="round" x1="1177.521" y1="300.426" x2="1177.521" y2="486.411"/>
<line fill="none" stroke="#000000" stroke-width="0.412" stroke-linecap="round" stroke-linejoin="round" x1="1176.266" y1="300.426" x2="1176.266" y2="486.411"/>
<line fill="none" stroke="#000000" stroke-width="0.412" stroke-linecap="round" stroke-linejoin="round" x1="830.76" y1="312.769" x2="830.76" y2="469.047"/>
<line fill="none" stroke="#000000" stroke-width="0.412" stroke-linecap="round" stroke-linejoin="round" x1="832.014" y1="312.769" x2="832.014" y2="469.047"/>
<line fill="none" stroke="#000000" stroke-width="0.412" stroke-linecap="round" stroke-linejoin="round" x1="855.969" y1="312.769" x2="855.969" y2="469.047"/>
<line fill="none" stroke="#000000" stroke-width="0.412" stroke-linecap="round" stroke-linejoin="round" x1="857.225" y1="312.769" x2="857.225" y2="469.047"/>
<line fill="none" stroke="#000000" stroke-width="0.412" stroke-linecap="round" stroke-linejoin="round" x1="225.837" y1="103.876" x2="225.837" y2="97.286"/>
<line fill="none" stroke="#000000" stroke-width="0.412" stroke-linecap="round" stroke-linejoin="round" x1="227.092" y1="103.876" x2="227.092" y2="97.286"/>
<line fill="none" stroke="#000000" stroke-width="0.412" stroke-linecap="round" stroke-linejoin="round" x1="225.837" y1="128.772" x2="225.837" y2="134.629"/>
<line fill="none" stroke="#000000" stroke-width="0.412" stroke-linecap="round" stroke-linejoin="round" x1="227.092" y1="128.772" x2="227.092" y2="134.629"/>
<g>
	<g>
		<polyline points="1184.11,306.284 1184.11,301.682 1183.063,301.682 1183.063,306.284 1184.11,306.284 		"/>
		<polyline fill="none" stroke="#000000" stroke-width="0.5" stroke-linecap="round" stroke-linejoin="round" points="
			1184.11,306.284 1184.11,301.682 1183.063,301.682 1183.063,306.284 1184.11,306.284 		"/>
		<polyline points="1185.889,304.505 1185.889,303.46 1181.286,303.46 1181.286,304.505 1185.889,304.505 		"/>
		<polyline fill="none" stroke="#000000" stroke-width="0.5" stroke-linecap="round" stroke-linejoin="round" points="
			1185.889,304.505 1185.889,303.46 1181.286,303.46 1181.286,304.505 1185.889,304.505 		"/>
	</g>
	<g>
		<polyline points="1184.11,482.646 1184.11,478.148 1183.063,478.148 1183.063,482.646 1184.11,482.646 		"/>
		<polyline fill="none" stroke="#000000" stroke-width="0.5" stroke-linecap="round" stroke-linejoin="round" points="
			1184.11,482.646 1184.11,478.148 1183.063,478.148 1183.063,482.646 1184.11,482.646 		"/>
		<polyline points="1185.889,480.867 1185.889,479.926 1181.286,479.926 1181.286,480.867 1185.889,480.867 		"/>
		<polyline fill="none" stroke="#000000" stroke-width="0.5" stroke-linecap="round" stroke-linejoin="round" points="
			1185.889,480.867 1185.889,479.926 1181.286,479.926 1181.286,480.867 1185.889,480.867 		"/>
	</g>
	<g>
		<polyline points="1024.067,306.284 1024.067,301.682 1023.021,301.682 1023.021,306.284 1024.067,306.284 		"/>
		<polyline fill="none" stroke="#000000" stroke-width="0.5" stroke-linecap="round" stroke-linejoin="round" points="
			1024.067,306.284 1024.067,301.682 1023.021,301.682 1023.021,306.284 1024.067,306.284 		"/>
		<polyline points="1025.845,304.505 1025.845,303.46 1021.242,303.46 1021.242,304.505 1025.845,304.505 		"/>
		<polyline fill="none" stroke="#000000" stroke-width="0.5" stroke-linecap="round" stroke-linejoin="round" points="
			1025.845,304.505 1025.845,303.46 1021.242,303.46 1021.242,304.505 1025.845,304.505 		"/>
	</g>
	<g>
		<polyline points="1024.067,482.646 1024.067,478.148 1023.021,478.148 1023.021,482.646 1024.067,482.646 		"/>
		<polyline fill="none" stroke="#000000" stroke-width="0.5" stroke-linecap="round" stroke-linejoin="round" points="
			1024.067,482.646 1024.067,478.148 1023.021,478.148 1023.021,482.646 1024.067,482.646 		"/>
		<polyline points="1025.845,480.867 1025.845,479.926 1021.242,479.926 1021.242,480.867 1025.845,480.867 		"/>
		<polyline fill="none" stroke="#000000" stroke-width="0.5" stroke-linecap="round" stroke-linejoin="round" points="
			1025.845,480.867 1025.845,479.926 1021.242,479.926 1021.242,480.867 1025.845,480.867 		"/>
	</g>
	<g>
		<polyline points="864.023,306.284 864.023,301.682 862.979,301.682 862.979,306.284 864.023,306.284 		"/>
		<polyline fill="none" stroke="#000000" stroke-width="0.5" stroke-linecap="round" stroke-linejoin="round" points="
			864.023,306.284 864.023,301.682 862.979,301.682 862.979,306.284 864.023,306.284 		"/>
		<polyline points="865.803,304.505 865.803,303.46 861.199,303.46 861.199,304.505 865.803,304.505 		"/>
		<polyline fill="none" stroke="#000000" stroke-width="0.5" stroke-linecap="round" stroke-linejoin="round" points="
			865.803,304.505 865.803,303.46 861.199,303.46 861.199,304.505 865.803,304.505 		"/>
	</g>
	<g>
		<polyline points="864.023,482.646 864.023,478.148 862.979,478.148 862.979,482.646 864.023,482.646 		"/>
		<polyline fill="none" stroke="#000000" stroke-width="0.5" stroke-linecap="round" stroke-linejoin="round" points="
			864.023,482.646 864.023,478.148 862.979,478.148 862.979,482.646 864.023,482.646 		"/>
		<polyline points="865.803,480.867 865.803,479.926 861.199,479.926 861.199,480.867 865.803,480.867 		"/>
		<polyline fill="none" stroke="#000000" stroke-width="0.5" stroke-linecap="round" stroke-linejoin="round" points="
			865.803,480.867 865.803,479.926 861.199,479.926 861.199,480.867 865.803,480.867 		"/>
	</g>
	<g>
		<polyline points="703.98,306.284 703.98,301.682 702.934,301.682 702.934,306.284 703.98,306.284 		"/>
		<polyline fill="none" stroke="#000000" stroke-width="0.5" stroke-linecap="round" stroke-linejoin="round" points="
			703.98,306.284 703.98,301.682 702.934,301.682 702.934,306.284 703.98,306.284 		"/>
		<polyline points="705.758,304.505 705.758,303.46 701.156,303.46 701.156,304.505 705.758,304.505 		"/>
		<polyline fill="none" stroke="#000000" stroke-width="0.5" stroke-linecap="round" stroke-linejoin="round" points="
			705.758,304.505 705.758,303.46 701.156,303.46 701.156,304.505 705.758,304.505 		"/>
	</g>
	<g>
		<polyline points="703.98,482.646 703.98,478.148 702.934,478.148 702.934,482.646 703.98,482.646 		"/>
		<polyline fill="none" stroke="#000000" stroke-width="0.5" stroke-linecap="round" stroke-linejoin="round" points="
			703.98,482.646 703.98,478.148 702.934,478.148 702.934,482.646 703.98,482.646 		"/>
		<polyline points="705.758,480.867 705.758,479.926 701.156,479.926 701.156,480.867 705.758,480.867 		"/>
		<polyline fill="none" stroke="#000000" stroke-width="0.5" stroke-linecap="round" stroke-linejoin="round" points="
			705.758,480.867 705.758,479.926 701.156,479.926 701.156,480.867 705.758,480.867 		"/>
	</g>
</g>
<polyline points="175.418,102.307 175.418,97.286 69.56,97.286 69.56,102.307 175.418,102.307 "/>
<polyline fill="none" stroke="#000000" stroke-width="0.5" stroke-linecap="round" stroke-linejoin="round" points="
	175.418,102.307 175.418,97.286 69.56,97.286 69.56,102.307 175.418,102.307 "/>
<polyline points="281.277,143.73 281.277,97.286 276.256,97.286 276.256,143.73 281.277,143.73 "/>
<polyline fill="none" stroke="#000000" stroke-width="0.5" stroke-linecap="round" stroke-linejoin="round" points="281.277,143.73 
	281.277,97.286 276.256,97.286 276.256,143.73 281.277,143.73 "/>
<polyline points="281.277,234.944 281.277,189.023 276.256,189.023 276.256,234.944 281.277,234.944 "/>
<polyline fill="none" stroke="#000000" stroke-width="0.5" stroke-linecap="round" stroke-linejoin="round" points="
	281.277,234.944 281.277,189.023 276.256,189.023 276.256,234.944 281.277,234.944 "/>
<polyline points="74.58,631.602 74.58,97.286 69.56,97.286 69.56,631.602 74.58,631.602 "/>
<polyline fill="none" stroke="#000000" stroke-width="0.5" stroke-linecap="round" stroke-linejoin="round" points="74.58,631.602 
	74.58,97.286 69.56,97.286 69.56,631.602 74.58,631.602 "/>
<polyline points="251.046,631.602 251.046,626.58 69.56,626.58 69.56,631.602 251.046,631.602 "/>
<polyline fill="none" stroke="#000000" stroke-width="0.5" stroke-linecap="round" stroke-linejoin="round" points="
	251.046,631.602 251.046,626.58 69.56,626.58 69.56,631.602 251.046,631.602 "/>
<polyline points="718.521,278.773 718.521,273.752 237.134,273.752 237.134,278.773 718.521,278.773 "/>
<polyline fill="none" stroke="#000000" stroke-width="0.5" stroke-linecap="round" stroke-linejoin="round" points="
	718.521,278.773 718.521,273.752 237.134,273.752 237.134,278.773 718.521,278.773 "/>
<polyline points="903.773,474.068 903.773,469.047 687.034,469.047 687.034,474.068 903.773,474.068 "/>
<polyline fill="none" stroke="#000000" stroke-width="0.5" stroke-linecap="round" stroke-linejoin="round" points="
	903.773,474.068 903.773,469.047 687.034,469.047 687.034,474.068 903.773,474.068 "/>
<polyline points="1121.872,374.589 1121.872,369.464 985.678,369.464 985.678,374.589 1121.872,374.589 "/>
<polyline fill="none" stroke="#000000" stroke-width="0.5" stroke-linecap="round" stroke-linejoin="round" points="
	1121.872,374.589 1121.872,369.464 985.678,369.464 985.678,374.589 1121.872,374.589 "/>
<polyline points="1334.845,535.889 1334.845,530.867 1091.536,530.867 1091.536,535.889 1334.845,535.889 "/>
<polyline fill="none" stroke="#000000" stroke-width="0.5" stroke-linecap="round" stroke-linejoin="round" points="
	1334.845,535.889 1334.845,530.867 1091.536,530.867 1091.536,535.889 1334.845,535.889 "/>
<polyline points="1334.845,253.563 1334.845,248.543 1000.845,248.543 1000.845,253.563 1334.845,253.563 "/>
<polyline fill="none" stroke="#000000" stroke-width="0.5" stroke-linecap="round" stroke-linejoin="round" points="
	1334.845,253.563 1334.845,248.543 1000.845,248.543 1000.845,253.563 1334.845,253.563 "/>
<polyline points="1339.865,535.889 1339.865,248.543 1334.845,248.543 1334.845,535.889 1339.865,535.889 "/>
<polyline fill="none" stroke="#000000" stroke-width="0.5" stroke-linecap="round" stroke-linejoin="round" points="
	1339.865,535.889 1339.865,248.543 1334.845,248.543 1334.845,535.889 1339.865,535.889 "/>
</svg>
